<svg xmlns="http://www.w3.org/2000/svg" width="1524" height="1024">
  <path fill="none" stroke="#8e44af" stroke-opacity=".9" stroke-width="10" d="M763.2 22.8c-282.8 0-512 229.2-512 512 0 226.2 146.7 418 350.2 485.8 25.5 4.7 35-11.2 35-24.7 0-12.6-.6-53-.8-95.8C493.2 931.2 463 840 463 840c-23-59-56.5-75-56.5-75-46.6-31.6 3.5-31 3.5-31 51.3 3.6 78.4 52.8 78.4 52.8 45.6 78.2 119.8 55.5 149 42.4 4.6-33 18-55.6 32.5-68.4-114-12.8-233.7-56.7-233.7-253 0-56 20-101.5 52.7-137.3-5-13-22.7-65 5-135.6 0 0 43-13.8 141 52.4 40.8-11.4 84.6-17 128-17.2 43.6.2 87.4 6 128.3 17.3C989 221.3 1032 235 1032 235c28 70.6 10.5 122.6 5.3 135.6 32.7 36 52.7 81.4 52.7 137.4-.2 197-120 240-234 253 18.4 15.8 34.8 47 34.8 94.7 0 68.5-.7 123.6-.7 140.5 0 13.6 9.8 29.6 35.7 24.6 203.3-67.8 350-259.7 350-485.8 0-282.8-229.4-512-512-512z"/>
</svg>
