<svg xmlns="http://www.w3.org/2000/svg" width="150" height="100" version="1">
  <g fill="none" stroke="#8e44ad" stroke-miterlimit="10" stroke-linecap="round" stroke-linejoin="round">
    <path d="M101.7 26v6.3c0 1.4-3 2.5-6.7 2.5s-6.7-1-6.7-2.5V24c0-1 2-2 4.7-2.4L81.7 16v6.3c0 1.4-3 2.5-6.7 2.5s-6.7-1-6.7-2.5V16L57 21.5c2.7.3 4.7 1.3 4.7 2.4v8c0 1.3-3 2.4-6.7 2.4s-6.7-1-6.7-2.5v-6L35 32.4l40 20 40-20-13.3-6.7zm-20 16.3c0 1.4-3 2.5-6.7 2.5s-6.7-1-6.7-2.5V34c0-1.4 3-2.5 6.7-2.5s6.7 1 6.7 2.5v8.3z"/>
    <path d="M61.7 24c0 1.4-3 2.5-6.7 2.5s-6.7-1-6.7-2.5c0-1.4 3-2.5 6.7-2.5s6.7 1 6.7 2.5z"/>
    <path d="M48.3 24c0 1.4 3 2.5 6.7 2.5s6.7-1 6.7-2.5v8.3c0 1.4-3 2.5-6.7 2.5s-6.7-1-6.7-2.5V24zm53.4 0c0 1.4-3 2.5-6.7 2.5s-6.7-1-6.7-2.5c0-1.4 3-2.5 6.7-2.5s6.7 1 6.7 2.5z"/>
    <path d="M88.3 24c0 1.4 3 2.5 6.7 2.5s6.7-1 6.7-2.5v8.3c0 1.4-3 2.5-6.7 2.5s-6.7-1-6.7-2.5V24zm-6.6 10c0 1.4-3 2.5-6.7 2.5s-6.7-1-6.7-2.5c0-1.4 3-2.5 6.7-2.5s6.7 1 6.7 2.5z"/>
    <path d="M68.3 34c0 1.4 3 2.5 6.7 2.5s6.7-1 6.7-2.5v8.3c0 1.4-3 2.5-6.7 2.5s-6.7-1-6.7-2.5V34zm13.4-20c0 1.4-3 2.5-6.7 2.5s-6.7-1-6.7-2.5c0-1.4 3-2.5 6.7-2.5s6.7 1 6.7 2.5z"/>
    <path d="M68.3 14c0 1.4 3 2.5 6.7 2.5s6.7-1 6.7-2.5v8.3c0 1.4-3 2.5-6.7 2.5s-6.7-1-6.7-2.5V14zM75 72V52.7l-40-20V52z"/>
    <path d="M75 91.5V72L35 52v19.5zM75 72V52.7l40-20V52z"/>
    <path d="M75 91.5V72l40-20v19.5z"/>
  </g>
</svg>
