<?xml version="1.0" encoding="UTF-8" standalone="no"?>
<svg
   xmlns:dc="http://purl.org/dc/elements/1.1/"
   xmlns:cc="http://creativecommons.org/ns#"
   xmlns:rdf="http://www.w3.org/1999/02/22-rdf-syntax-ns#"
   xmlns:svg="http://www.w3.org/2000/svg"
   xmlns="http://www.w3.org/2000/svg"
   xmlns:sodipodi="http://sodipodi.sourceforge.net/DTD/sodipodi-0.dtd"
   xmlns:inkscape="http://www.inkscape.org/namespaces/inkscape"
   height="1024"
   width="1524"
   id="svg2"
   version="1.1"
   inkscape:version="0.91 r13725"
   sodipodi:docname="Octicons-mark-github.svg"
   inkscape:export-filename="/home/paulo/git/pedalpi.github.io/assets/img/Octicons-mark-github.svg.png"
   inkscape:export-xdpi="17.58"
   inkscape:export-ydpi="17.58">
  <metadata
     id="metadata10">
    <rdf:RDF>
      <cc:Work
         rdf:about="">
        <dc:format>image/svg+xml</dc:format>
        <dc:type
           rdf:resource="http://purl.org/dc/dcmitype/StillImage" />
        <dc:title />
      </cc:Work>
    </rdf:RDF>
  </metadata>
  <defs
     id="defs8" />
  <sodipodi:namedview
     pagecolor="#ffffff"
     bordercolor="#666666"
     borderopacity="1"
     objecttolerance="10"
     gridtolerance="10"
     guidetolerance="10"
     inkscape:pageopacity="0"
     inkscape:pageshadow="2"
     inkscape:window-width="1366"
     inkscape:window-height="744"
     id="namedview6"
     showgrid="false"
     inkscape:zoom="0.46093752"
     inkscape:cx="728.22999"
     inkscape:cy="597.23286"
     inkscape:window-x="0"
     inkscape:window-y="24"
     inkscape:window-maximized="1"
     inkscape:current-layer="svg2" />
  <path
     d="m 763.19593,22.762877 c -282.75,0 -512,229.250003 -512,512.000003 0,226.24997 146.688,418.12497 350.156,485.81192 25.594,4.688 34.938,-11.125 34.938,-24.62495 0,-12.188 -0.469,-52.562 -0.719,-95.312 -142.375,30.937 -172.469,-60.375 -172.469,-60.375 -23.312,-59.125 -56.844,-74.875 -56.844,-74.875 -46.531,-31.75 3.53,-31.125 3.53,-31.125 51.406,3.562 78.47,52.75 78.47,52.75 45.688,78.25 119.875,55.625 149,42.5 4.654,-33 17.904,-55.625 32.5,-68.375 -113.656,-12.937 -233.218,-56.875 -233.218,-253.06297 0,-55.938 19.969,-101.562 52.656,-137.406 -5.219,-13 -22.844,-65.094 5.062,-135.562 0,0 42.938,-13.75 140.812,52.5 40.812,-11.406 84.594,-17.031 128.125,-17.219 43.5,0.188 87.312,5.875 128.188,17.281 97.68798,-66.312 140.68797,-52.5 140.68797,-52.5 28,70.531 10.375,122.562 5.125,135.5 32.812,35.844 52.625,81.469 52.625,137.406 0,196.68797 -119.74997,239.99997 -233.81197,252.68797 18.438,15.875 34.75,47 34.75,94.75 0,68.438 -0.688,123.625 -0.688,140.5 0,13.62495 9.312,29.56195 35.25,24.56195 203.31297,-67.81195 349.87497,-259.68695 349.87497,-485.81192 0,-282.75 -229.25,-512.000003 -511.99997,-512.000003 z"
     id="path4"
     style="fill:none;fill-opacity:1;stroke:#8e44af;stroke-width:10;stroke-miterlimit:4;stroke-dasharray:none;stroke-opacity:0.94117647"
     inkscape:export-xdpi="17"
     inkscape:export-ydpi="17"
     inkscape:connector-curvature="0" />
</svg>
