<?xml version="1.0" encoding="UTF-8" standalone="no"?>
<svg
   xmlns:dc="http://purl.org/dc/elements/1.1/"
   xmlns:cc="http://creativecommons.org/ns#"
   xmlns:rdf="http://www.w3.org/1999/02/22-rdf-syntax-ns#"
   xmlns:svg="http://www.w3.org/2000/svg"
   xmlns="http://www.w3.org/2000/svg"
   xmlns:sodipodi="http://sodipodi.sourceforge.net/DTD/sodipodi-0.dtd"
   xmlns:inkscape="http://www.inkscape.org/namespaces/inkscape"
   version="1.0"
   x="0px"
   y="0px"
   viewBox="0 0 150 100"
   enable-background="new 0 0 100 100"
   xml:space="preserve"
   id="svg2"
   inkscape:version="0.91 r13725"
   sodipodi:docname="modular.svg"
   width="150"
   height="100"><metadata
     id="metadata38"><rdf:RDF><cc:Work
         rdf:about=""><dc:format>image/svg+xml</dc:format><dc:type
           rdf:resource="http://purl.org/dc/dcmitype/StillImage" /><dc:title></dc:title></cc:Work></rdf:RDF></metadata><defs
     id="defs36" /><sodipodi:namedview
     pagecolor="#ffffff"
     bordercolor="#666666"
     borderopacity="1"
     objecttolerance="10"
     gridtolerance="10"
     guidetolerance="10"
     inkscape:pageopacity="0"
     inkscape:pageshadow="2"
     inkscape:window-width="1366"
     inkscape:window-height="744"
     id="namedview34"
     showgrid="false"
     inkscape:zoom="1.888"
     inkscape:cx="44.859432"
     inkscape:cy="156.97447"
     inkscape:window-x="0"
     inkscape:window-y="24"
     inkscape:window-maximized="1"
     inkscape:current-layer="svg2" /><g
     id="g4168"
     transform="translate(3.000002,0)"><path
       inkscape:connector-curvature="0"
       style="fill:none;stroke:#8e44ad;stroke-width:1;stroke-linecap:round;stroke-linejoin:round;stroke-miterlimit:10;stroke-dasharray:none;stroke-opacity:1"
       id="path4"
       d="m 98.667,25.945031 0,6.388 c 0,1.38 -2.985,2.498 -6.663,2.498 -3.683,0 -6.67,-1.118 -6.67,-2.498 l 0,-8.332 c 0,-1.12 1.979,-2.059 4.691,-2.377 l -11.36,-5.681 0,6.39 c 0,1.381 -2.986,2.5 -6.664,2.5 -3.683,0 -6.669,-1.119 -6.669,-2.5 l 0,-6.39 -11.358,5.679 c 2.71,0.318 4.691,1.258 4.691,2.378 l 0,8.332 c 0,1.38 -2.986,2.498 -6.663,2.498 -3.684,0 -6.67,-1.118 -6.67,-2.498 l 0,-6.388 -13.332,6.667 39.999,20.003 40.001,-20.003 -13.333,-6.666 z m -20.002,16.387 c 0,1.381 -2.986,2.5 -6.664,2.5 -3.683,0 -6.669,-1.119 -6.669,-2.5 l 0,-8.331 c 0,-1.379 2.986,-2.502 6.669,-2.502 3.677,0 6.664,1.123 6.664,2.502 l 0,8.331 z"
       stroke-miterlimit="10" /><path
       inkscape:connector-curvature="0"
       style="fill:none;stroke:#8e44ad;stroke-width:1;stroke-linecap:round;stroke-linejoin:round;stroke-miterlimit:10;stroke-dasharray:none;stroke-opacity:1"
       id="path6"
       d="m 58.665,23.999031 c 0,1.383 -2.982,2.504 -6.667,2.504 -3.68,0 -6.666,-1.121 -6.666,-2.504 0,-1.379 2.986,-2.5 6.666,-2.5 3.685,0 6.667,1.121 6.667,2.5 z"
       stroke-miterlimit="10" /><path
       inkscape:connector-curvature="0"
       style="fill:none;stroke:#8e44ad;stroke-width:1;stroke-linecap:round;stroke-linejoin:round;stroke-miterlimit:10;stroke-dasharray:none;stroke-opacity:1"
       id="path8"
       d="m 45.333,24.001031 c 0,1.381 2.986,2.502 6.666,2.502 3.684,0 6.667,-1.121 6.667,-2.502 l 0,8.333 c 0,1.379 -2.982,2.498 -6.667,2.498 -3.68,0 -6.666,-1.119 -6.666,-2.498 l 0,-8.333 z"
       stroke-miterlimit="10" /><path
       inkscape:connector-curvature="0"
       style="fill:none;stroke:#8e44ad;stroke-width:1;stroke-linecap:round;stroke-linejoin:round;stroke-miterlimit:10;stroke-dasharray:none;stroke-opacity:1"
       id="path10"
       d="m 98.667,23.999031 c 0,1.383 -2.985,2.504 -6.663,2.504 -3.683,0 -6.67,-1.121 -6.67,-2.504 0,-1.379 2.987,-2.5 6.67,-2.5 3.678,0 6.663,1.121 6.663,2.5 z"
       stroke-miterlimit="10" /><path
       inkscape:connector-curvature="0"
       style="fill:none;stroke:#8e44ad;stroke-width:1;stroke-linecap:round;stroke-linejoin:round;stroke-miterlimit:10;stroke-dasharray:none;stroke-opacity:1"
       id="path12"
       d="m 85.334,24.001031 c 0,1.381 2.987,2.502 6.67,2.502 3.678,0 6.663,-1.121 6.663,-2.502 l 0,8.333 c 0,1.379 -2.985,2.498 -6.663,2.498 -3.683,0 -6.67,-1.119 -6.67,-2.498 l 0,-8.333 z"
       stroke-miterlimit="10" /><path
       inkscape:connector-curvature="0"
       style="fill:none;stroke:#8e44ad;stroke-width:1;stroke-linecap:round;stroke-linejoin:round;stroke-miterlimit:10;stroke-dasharray:none;stroke-opacity:1"
       id="path14"
       d="m 78.665,34.002031 c 0,1.379 -2.983,2.5 -6.664,2.5 -3.683,0 -6.669,-1.121 -6.669,-2.5 0,-1.384 2.986,-2.5 6.669,-2.5 3.681,0 6.664,1.116 6.664,2.5 z"
       stroke-miterlimit="10" /><path
       inkscape:connector-curvature="0"
       style="fill:none;stroke:#8e44ad;stroke-width:1;stroke-linecap:round;stroke-linejoin:round;stroke-miterlimit:10;stroke-dasharray:none;stroke-opacity:1"
       id="path16"
       d="m 65.333,34.002031 c 0,1.379 2.986,2.5 6.669,2.5 3.68,0 6.664,-1.121 6.664,-2.5 l 0,8.33 c 0,1.383 -2.983,2.503 -6.664,2.503 -3.683,0 -6.669,-1.12 -6.669,-2.503 l 0,-8.33 z"
       stroke-miterlimit="10" /><path
       inkscape:connector-curvature="0"
       style="fill:none;stroke:#8e44ad;stroke-width:1;stroke-linecap:round;stroke-linejoin:round;stroke-miterlimit:10;stroke-dasharray:none;stroke-opacity:1"
       id="path18"
       d="m 78.665,14.001031 c 0,1.38 -2.983,2.502 -6.664,2.502 -3.683,0 -6.669,-1.122 -6.669,-2.502 0,-1.381 2.986,-2.501 6.669,-2.501 3.681,0 6.664,1.12 6.664,2.501 z"
       stroke-miterlimit="10" /><path
       inkscape:connector-curvature="0"
       style="fill:none;stroke:#8e44ad;stroke-width:1;stroke-linecap:round;stroke-linejoin:round;stroke-miterlimit:10;stroke-dasharray:none;stroke-opacity:1"
       id="path20"
       d="m 65.333,14.003031 c 0,1.378 2.986,2.5 6.669,2.5 3.68,0 6.664,-1.122 6.664,-2.5 l 0,8.332 c 0,1.379 -2.983,2.5 -6.664,2.5 -3.683,0 -6.669,-1.12 -6.669,-2.5 l 0,-8.332 z"
       stroke-miterlimit="10" /><polygon
       transform="translate(22,1.5000309)"
       style="fill:none;stroke:#8e44ad;stroke-width:1;stroke-linecap:round;stroke-linejoin:round;stroke-miterlimit:10;stroke-dasharray:none;stroke-opacity:1"
       id="polygon22"
       points="49.999,70.557 49.999,51.114 10.002,31.113 10.002,50.556 "
       stroke-miterlimit="10" /><polygon
       transform="translate(22,1.5000309)"
       style="fill:none;stroke:#8e44ad;stroke-width:1;stroke-linecap:round;stroke-linejoin:round;stroke-miterlimit:10;stroke-dasharray:none;stroke-opacity:1"
       id="polygon24"
       points="49.999,90 49.999,70.557 10.002,50.558 10.002,70.001 "
       stroke-miterlimit="10" /><polygon
       transform="translate(22,1.5000309)"
       style="fill:none;stroke:#8e44ad;stroke-width:1;stroke-linecap:round;stroke-linejoin:round;stroke-miterlimit:10;stroke-dasharray:none;stroke-opacity:1"
       id="polygon26"
       points="49.999,70.557 49.999,51.114 89.996,31.113 89.996,50.556 "
       stroke-miterlimit="10" /><polygon
       transform="translate(22,1.5000309)"
       style="fill:none;stroke:#8e44ad;stroke-width:1;stroke-linecap:round;stroke-linejoin:round;stroke-miterlimit:10;stroke-dasharray:none;stroke-opacity:1"
       id="polygon28"
       points="49.999,90 49.999,70.557 89.996,50.558 89.996,70.001 "
       stroke-miterlimit="10" /></g></svg>